<svg width="150" height="150" viewBox="0 0 150 150" fill="none" xmlns="http://www.w3.org/2000/svg">
<path d="M141.408 75.0655C141.408 59.729 136.091 44.8669 126.361 33.0116C116.632 21.1563 103.093 13.0413 88.0508 10.0492C73.009 7.05723 57.395 9.37334 43.8693 16.6029C30.3437 23.8325 19.7432 35.5283 13.8742 49.6974C8.00513 63.8666 7.2306 79.6324 11.6826 94.3085C16.1345 108.985 25.5376 121.663 38.2894 130.184C51.0413 138.704 66.3531 142.54 81.6158 141.036C96.8786 139.533 111.148 132.784 121.992 121.94" stroke="#001489" stroke-width="4.84"/>
<path d="M120.048 136.794L118.462 124.912L129.049 116.029L120.048 136.794Z" fill="#001489"/>
<path d="M107.036 121.287L118.462 124.912L129.049 116.029L107.036 121.287Z" fill="#001489"/>
<path d="M75.0024 75.0005L112.502 37.5005L75.0024 61.2612L75.0024 75.0005Z" fill="#001489"/>
<path d="M75.0034 75.0005L37.5034 112.501L75.0034 88.7397L75.0034 75.0005Z" fill="#001489"/>
<path d="M75.0024 75.0005L37.5024 37.5005L61.2632 75.0005L75.0024 75.0005Z" fill="#001489"/>
<path d="M75.0022 75.0007L112.502 112.501L88.6606 75.0815L75.0022 75.0007Z" fill="#001489"/>
<path d="M87.0518 73.9309L86.3737 75.0013L87.0518 76.0716L106.039 106.037L76.0723 87.0511L75.002 86.373L73.9316 87.0511L43.9645 106.037L62.9521 76.0716L63.6302 75.0013L62.9521 73.9309L43.9645 43.9624L73.9316 62.9514L75.002 63.6295L76.0723 62.9514L106.039 43.9624L87.0518 73.9309Z" stroke="#001489" stroke-width="4"/>
<path d="M86.832 61.709L87.1094 62.9453L88.3457 63.2227L140.861 75L88.3457 86.7793L87.1094 87.0566L86.832 88.293L75.0527 140.809L63.2754 88.293L62.998 87.0566L61.7617 86.7793L9.24414 75L61.7617 63.2227L62.998 62.9453L63.2754 61.709L75.0527 9.19141L86.832 61.709Z" fill="#F8F8F8" stroke="#001489" stroke-width="4"/>
<path d="M75.0539 75.0008V0.0527344L61.3242 61.2711L75.0539 75.0008Z" fill="#001489"/>
<path d="M75.0535 75.0002V149.948L88.7832 88.7299L75.0535 75.0002Z" fill="#001489"/>
<path d="M75.0535 75.0008H0.105469L61.3238 88.7305L75.0535 75.0008Z" fill="#001489"/>
<path d="M75.0539 75.0008H150.002L88.7836 61.4326L75.0539 75.0008Z" fill="#001489"/>
</svg>
