<svg width="235" height="297" viewBox="0 0 235 297" fill="none" xmlns="http://www.w3.org/2000/svg">
<g clip-path="url(#clip0_401_4967)">
<path d="M208.881 103.4C208.881 82.2359 201.542 61.7262 188.116 45.3659C174.689 29.0055 156.005 17.8068 135.247 13.6778C114.489 9.54886 92.9422 12.7451 74.2768 22.7219C55.6114 32.6988 40.9828 48.8389 32.8835 68.3923C24.7842 87.9457 23.7153 109.703 29.8591 129.956C36.0028 150.209 48.9789 167.705 66.5765 179.463C84.1742 191.222 105.304 196.515 126.367 194.44C147.43 192.366 167.121 183.052 182.087 168.087" stroke="#EDEDED" stroke-width="6.6792"/>
<path d="M179.403 188.586L177.215 172.189L191.824 159.93L179.403 188.586Z" fill="#EDEDED"/>
<path d="M161.446 167.187L177.215 172.189L191.824 159.93L161.446 167.187Z" fill="#EDEDED"/>
<g clip-path="url(#clip1_401_4967)">
<path d="M117.5 103.5L169.25 51.7496L117.5 84.5395L117.5 103.5Z" fill="#EDEDED"/>
<path d="M117.5 103.499L65.7504 155.249L117.5 122.46L117.5 103.499Z" fill="#EDEDED"/>
<path d="M117.5 103.499L65.7496 51.7494L98.5395 103.499L117.5 103.499Z" fill="#EDEDED"/>
<path d="M117.501 103.5L169.251 155.25L136.349 103.612L117.501 103.5Z" fill="#EDEDED"/>
<path d="M134.129 102.023L133.193 103.5L134.129 104.977L160.331 146.331L118.977 120.129L117.5 119.193L116.023 120.129L74.6689 146.331L100.871 104.977L101.807 103.5L100.871 102.023L74.6683 60.6682L116.023 86.8712L117.5 87.8069L118.977 86.8712L160.332 60.6682L134.129 102.023Z" stroke="#EDEDED" stroke-width="5.52"/>
<path d="M133.683 85.085L134.064 86.792L135.771 87.1748L208.245 103.428L135.771 119.683L134.064 120.064L133.683 121.771L117.428 194.245L101.175 121.771L100.792 120.064L99.085 119.683L26.6104 103.428L99.085 87.1748L100.792 86.792L101.175 85.085L117.428 12.6104L133.683 85.085Z" fill="#001489" stroke="#EDEDED" stroke-width="5.52"/>
<path d="M117.429 103.428V0L98.4824 84.4813L117.429 103.428Z" fill="#EDEDED"/>
<path d="M117.43 103.427V206.855L136.377 122.374L117.43 103.427Z" fill="#EDEDED"/>
<path d="M117.43 103.428H14.002L98.4832 122.375L117.43 103.428Z" fill="#EDEDED"/>
<path d="M117.429 103.428H220.857L136.376 84.7041L117.429 103.428Z" fill="#EDEDED"/>
</g>
</g>
<path d="M18.8109 259.764V266.609H29.8499V272.972H18.8109V280.396H31.296V287H10.5678V253.16H31.296V259.764H18.8109ZM57.3758 287L50.4824 276.636L44.4086 287H35.0568L45.9029 269.791L34.8158 253.16H44.4086L51.2055 263.379L57.1829 253.16H66.5347L55.785 270.225L66.9686 287H57.3758ZM96.8964 264.054C96.8964 266.015 96.4465 267.814 95.5467 269.453C94.6469 271.06 93.265 272.362 91.4011 273.358C89.5371 274.354 87.2233 274.852 84.4595 274.852H79.3498V287H71.1067V253.16H84.4595C87.159 253.16 89.4407 253.626 91.3047 254.558C93.1686 255.49 94.5665 256.775 95.4985 258.414C96.4305 260.053 96.8964 261.933 96.8964 264.054ZM83.8329 268.296C85.4076 268.296 86.5805 267.927 87.3518 267.188C88.1231 266.449 88.5088 265.404 88.5088 264.054C88.5088 262.705 88.1231 261.66 87.3518 260.921C86.5805 260.182 85.4076 259.812 83.8329 259.812H79.3498V268.296H83.8329ZM117.192 287.337C114.01 287.337 111.086 286.598 108.419 285.12C105.783 283.642 103.678 281.585 102.104 278.95C100.561 276.282 99.7899 273.294 99.7899 269.984C99.7899 266.674 100.561 263.701 102.104 261.066C103.678 258.43 105.783 256.374 108.419 254.895C111.086 253.417 114.01 252.678 117.192 252.678C120.373 252.678 123.282 253.417 125.917 254.895C128.584 256.374 130.673 258.43 132.184 261.066C133.726 263.701 134.498 266.674 134.498 269.984C134.498 273.294 133.726 276.282 132.184 278.95C130.641 281.585 128.552 283.642 125.917 285.12C123.282 286.598 120.373 287.337 117.192 287.337ZM117.192 279.817C119.891 279.817 122.045 278.918 123.651 277.118C125.29 275.318 126.11 272.94 126.11 269.984C126.11 266.995 125.29 264.617 123.651 262.849C122.045 261.05 119.891 260.15 117.192 260.15C114.46 260.15 112.275 261.034 110.636 262.801C109.029 264.569 108.226 266.963 108.226 269.984C108.226 272.972 109.029 275.366 110.636 277.166C112.275 278.934 114.46 279.817 117.192 279.817ZM138.553 261.741C138.682 258.302 139.807 255.651 141.928 253.787C144.049 251.923 146.925 250.991 150.556 250.991C152.967 250.991 155.023 251.409 156.727 252.244C158.462 253.08 159.763 254.221 160.631 255.667C161.531 257.113 161.981 258.736 161.981 260.535C161.981 262.656 161.451 264.392 160.39 265.742C159.33 267.059 158.092 267.959 156.678 268.441V268.634C158.51 269.244 159.956 270.257 161.017 271.671C162.077 273.085 162.608 274.901 162.608 277.118C162.608 279.11 162.142 280.878 161.21 282.421C160.31 283.931 158.976 285.12 157.209 285.988C155.473 286.855 153.4 287.289 150.99 287.289C147.134 287.289 144.049 286.341 141.735 284.445C139.453 282.549 138.248 279.689 138.119 275.865H146.121C146.154 277.279 146.555 278.403 147.327 279.239C148.098 280.042 149.223 280.444 150.701 280.444C151.954 280.444 152.918 280.091 153.593 279.384C154.3 278.644 154.654 277.68 154.654 276.491C154.654 274.949 154.156 273.84 153.159 273.165C152.195 272.458 150.637 272.105 148.483 272.105H146.941V265.404H148.483C150.122 265.404 151.44 265.131 152.436 264.585C153.465 264.006 153.979 262.994 153.979 261.548C153.979 260.391 153.657 259.491 153.015 258.848C152.372 258.205 151.488 257.884 150.363 257.884C149.142 257.884 148.226 258.254 147.616 258.993C147.037 259.732 146.7 260.648 146.603 261.741H138.553ZM184.853 261.307C184.596 260.118 184.146 259.234 183.503 258.655C182.86 258.045 181.944 257.739 180.755 257.739C178.924 257.739 177.606 258.543 176.802 260.15C175.999 261.724 175.581 264.231 175.549 267.67C176.256 266.545 177.268 265.661 178.586 265.018C179.936 264.376 181.414 264.054 183.021 264.054C186.17 264.054 188.693 265.051 190.589 267.043C192.517 269.036 193.481 271.815 193.481 275.383C193.481 277.729 192.999 279.785 192.035 281.553C191.103 283.32 189.721 284.702 187.89 285.698C186.09 286.695 183.953 287.193 181.478 287.193C176.529 287.193 173.091 285.65 171.162 282.565C169.234 279.448 168.27 274.981 168.27 269.164C168.27 263.058 169.282 258.527 171.307 255.57C173.364 252.582 176.642 251.087 181.141 251.087C183.551 251.087 185.576 251.569 187.215 252.533C188.886 253.465 190.139 254.703 190.975 256.245C191.842 257.788 192.357 259.475 192.517 261.307H184.853ZM181.045 270.562C179.663 270.562 178.506 270.98 177.574 271.815C176.674 272.619 176.224 273.776 176.224 275.286C176.224 276.829 176.642 278.034 177.477 278.902C178.345 279.769 179.566 280.203 181.141 280.203C182.555 280.203 183.664 279.785 184.467 278.95C185.303 278.082 185.72 276.909 185.72 275.431C185.72 273.92 185.319 272.731 184.515 271.864C183.712 270.996 182.555 270.562 181.045 270.562ZM198.144 268.923C198.144 263.396 199.204 259.041 201.325 255.859C203.478 252.678 206.933 251.087 211.689 251.087C216.446 251.087 219.884 252.678 222.005 255.859C224.158 259.041 225.235 263.396 225.235 268.923C225.235 274.515 224.158 278.902 222.005 282.083C219.884 285.265 216.446 286.855 211.689 286.855C206.933 286.855 203.478 285.265 201.325 282.083C199.204 278.902 198.144 274.515 198.144 268.923ZM217.137 268.923C217.137 265.677 216.783 263.187 216.076 261.451C215.369 259.684 213.907 258.8 211.689 258.8C209.472 258.8 208.01 259.684 207.303 261.451C206.596 263.187 206.242 265.677 206.242 268.923C206.242 271.108 206.371 272.924 206.628 274.37C206.885 275.784 207.399 276.941 208.17 277.841C208.974 278.709 210.147 279.143 211.689 279.143C213.232 279.143 214.389 278.709 215.16 277.841C215.964 276.941 216.494 275.784 216.751 274.37C217.008 272.924 217.137 271.108 217.137 268.923Z" fill="#F2F3F9"/>
<defs>
<clipPath id="clip0_401_4967">
<rect width="207" height="207" fill="white" transform="translate(14)"/>
</clipPath>
<clipPath id="clip1_401_4967">
<rect width="207" height="207" fill="white" transform="translate(14)"/>
</clipPath>
</defs>
</svg>
