<svg width="371" height="774" viewBox="0 0 371 774" fill="none" xmlns="http://www.w3.org/2000/svg">
<rect x="51" y="55.0586" width="268" height="714.942" fill="#CCD0E7" stroke="#F2F3F9" stroke-width="6"/>
<path d="M3 53.125L3 13.0004C3 7.4775 7.47715 3.00035 13 3.00035L357 3.00035C362.523 3.00035 367 7.4775 367 13.0003V53.125L3 53.125Z" fill="#CCD0E7" stroke="#F2F3F9" stroke-width="6"/>
<path d="M151.794 27.3767H148.698L148.682 25.6715H151.281C151.739 25.6715 152.114 25.6136 152.407 25.4977C152.699 25.3763 152.917 25.2024 153.061 24.9762C153.21 24.7444 153.284 24.463 153.284 24.1319C153.284 23.7566 153.212 23.4531 153.069 23.2214C152.931 22.9896 152.713 22.8213 152.415 22.7164C152.123 22.6116 151.745 22.5592 151.281 22.5592H149.559V32.666H147.076V20.6139H151.281C151.982 20.6139 152.608 20.6802 153.16 20.8126C153.717 20.945 154.189 21.1465 154.576 21.4169C154.962 21.6873 155.257 22.0294 155.461 22.4433C155.665 22.8516 155.767 23.3372 155.767 23.9001C155.767 24.3968 155.654 24.8548 155.428 25.2742C155.207 25.6936 154.857 26.0357 154.377 26.3006C153.902 26.5655 153.281 26.7117 152.514 26.7393L151.794 27.3767ZM151.687 32.666H148.02L148.988 30.7291H151.687C152.123 30.7291 152.479 30.6601 152.754 30.5221C153.03 30.3787 153.235 30.1855 153.367 29.9427C153.499 29.6999 153.566 29.4212 153.566 29.1067C153.566 28.7535 153.505 28.4472 153.384 28.1879C153.268 27.9285 153.08 27.7298 152.821 27.5919C152.561 27.4484 152.219 27.3767 151.794 27.3767H149.402L149.419 25.6715H152.399L152.97 26.342C153.704 26.3309 154.294 26.4606 154.741 26.731C155.194 26.9959 155.522 27.3408 155.726 27.7657C155.936 28.1906 156.041 28.6459 156.041 29.1315C156.041 29.9041 155.872 30.5552 155.536 31.085C155.199 31.6093 154.705 32.0038 154.054 32.2687C153.408 32.5336 152.619 32.666 151.687 32.666ZM160.376 23.7097V32.666H157.984V23.7097H160.376ZM157.835 21.3755C157.835 21.0278 157.957 20.7409 158.199 20.5146C158.442 20.2883 158.768 20.1752 159.176 20.1752C159.579 20.1752 159.902 20.2883 160.145 20.5146C160.393 20.7409 160.517 21.0278 160.517 21.3755C160.517 21.7231 160.393 22.0101 160.145 22.2363C159.902 22.4626 159.579 22.5757 159.176 22.5757C158.768 22.5757 158.442 22.4626 158.199 22.2363C157.957 22.0101 157.835 21.7231 157.835 21.3755ZM162.452 19.9517H164.836V30.6132L164.596 32.666H162.452V19.9517ZM170.506 28.0968V28.2706C170.506 28.9384 170.435 29.5509 170.291 30.1083C170.153 30.6656 169.938 31.1485 169.646 31.5568C169.353 31.9597 168.989 32.2742 168.553 32.5005C168.123 32.7212 167.615 32.8316 167.03 32.8316C166.484 32.8316 166.009 32.7212 165.606 32.5005C165.209 32.2797 164.875 31.9679 164.605 31.5651C164.334 31.1623 164.116 30.6904 163.951 30.1496C163.785 29.6088 163.661 29.0184 163.578 28.3783V27.9975C163.661 27.3574 163.785 26.7669 163.951 26.2261C164.116 25.6853 164.334 25.2135 164.605 24.8106C164.875 24.4078 165.209 24.096 165.606 23.8753C166.003 23.6545 166.473 23.5442 167.013 23.5442C167.604 23.5442 168.117 23.6573 168.553 23.8836C168.994 24.1043 169.359 24.4188 169.646 24.8272C169.938 25.23 170.153 25.7101 170.291 26.2675C170.435 26.8193 170.506 27.4291 170.506 28.0968ZM168.123 28.2706V28.0968C168.123 27.7326 168.095 27.3905 168.04 27.0704C167.99 26.7448 167.902 26.4606 167.775 26.2178C167.648 25.9695 167.474 25.7736 167.253 25.6301C167.038 25.4866 166.759 25.4149 166.417 25.4149C166.092 25.4149 165.816 25.4701 165.59 25.5805C165.363 25.6908 165.176 25.8453 165.027 26.044C164.883 26.2427 164.776 26.4799 164.704 26.7559C164.632 27.0263 164.588 27.3242 164.571 27.6498V28.7342C164.588 29.1701 164.66 29.5564 164.787 29.893C164.919 30.2241 165.118 30.4863 165.383 30.6794C165.653 30.867 166.003 30.9608 166.434 30.9608C166.771 30.9608 167.049 30.8946 167.27 30.7622C167.491 30.6297 167.662 30.4421 167.783 30.1993C167.91 29.9565 167.998 29.6723 168.048 29.3467C168.098 29.0156 168.123 28.6569 168.123 28.2706ZM174.61 19.9517V32.666H172.218V19.9517H174.61ZM179.203 23.7097V32.666H176.811V23.7097H179.203ZM176.662 21.3755C176.662 21.0278 176.783 20.7409 177.026 20.5146C177.269 20.2883 177.594 20.1752 178.003 20.1752C178.405 20.1752 178.728 20.2883 178.971 20.5146C179.219 20.7409 179.344 21.0278 179.344 21.3755C179.344 21.7231 179.219 22.0101 178.971 22.2363C178.728 22.4626 178.405 22.5757 178.003 22.5757C177.594 22.5757 177.269 22.4626 177.026 22.2363C176.783 22.0101 176.662 21.7231 176.662 21.3755ZM180.898 28.2789V28.1051C180.898 27.4484 180.992 26.8442 181.18 26.2923C181.367 25.735 181.64 25.2521 181.999 24.8437C182.358 24.4354 182.799 24.1181 183.323 23.8918C183.848 23.6601 184.449 23.5442 185.128 23.5442C185.807 23.5442 186.411 23.6601 186.941 23.8918C187.47 24.1181 187.915 24.4354 188.273 24.8437C188.638 25.2521 188.913 25.735 189.101 26.2923C189.289 26.8442 189.383 27.4484 189.383 28.1051V28.2789C189.383 28.9301 189.289 29.5344 189.101 30.0917C188.913 30.6435 188.638 31.1264 188.273 31.5403C187.915 31.9486 187.473 32.2659 186.949 32.4922C186.425 32.7184 185.823 32.8316 185.144 32.8316C184.466 32.8316 183.861 32.7184 183.332 32.4922C182.807 32.2659 182.363 31.9486 181.999 31.5403C181.64 31.1264 181.367 30.6435 181.18 30.0917C180.992 29.5344 180.898 28.9301 180.898 28.2789ZM183.282 28.1051V28.2789C183.282 28.6542 183.315 29.0046 183.381 29.3302C183.448 29.6558 183.552 29.9427 183.696 30.191C183.845 30.4338 184.038 30.6242 184.275 30.7622C184.513 30.9001 184.802 30.9691 185.144 30.9691C185.476 30.9691 185.76 30.9001 185.997 30.7622C186.234 30.6242 186.425 30.4338 186.568 30.191C186.712 29.9427 186.817 29.6558 186.883 29.3302C186.954 29.0046 186.99 28.6542 186.99 28.2789V28.1051C186.99 27.7409 186.954 27.3987 186.883 27.0787C186.817 26.7531 186.709 26.4661 186.56 26.2178C186.416 25.964 186.226 25.7653 185.989 25.6218C185.751 25.4784 185.465 25.4066 185.128 25.4066C184.791 25.4066 184.504 25.4784 184.267 25.6218C184.035 25.7653 183.845 25.964 183.696 26.2178C183.552 26.4661 183.448 26.7531 183.381 27.0787C183.315 27.3987 183.282 27.7409 183.282 28.1051ZM195.341 23.7097V25.3983H190.126V23.7097H195.341ZM191.417 21.4996H193.801V29.9675C193.801 30.2269 193.834 30.4256 193.9 30.5635C193.972 30.7015 194.077 30.7981 194.215 30.8532C194.353 30.9029 194.527 30.9277 194.736 30.9277C194.885 30.9277 195.018 30.9222 195.134 30.9112C195.255 30.8946 195.357 30.8781 195.44 30.8615L195.448 32.6164C195.244 32.6826 195.023 32.735 194.786 32.7736C194.549 32.8123 194.287 32.8316 194 32.8316C193.475 32.8316 193.017 32.746 192.626 32.575C192.239 32.3984 191.941 32.1169 191.732 31.7307C191.522 31.3444 191.417 30.8367 191.417 30.2076V21.4996ZM200.926 32.8316C200.231 32.8316 199.607 32.7212 199.056 32.5005C198.504 32.2742 198.035 31.9624 197.648 31.5651C197.268 31.1678 196.975 30.707 196.771 30.1828C196.567 29.653 196.465 29.0901 196.465 28.4941V28.163C196.465 27.4843 196.561 26.8635 196.755 26.3006C196.948 25.7377 197.224 25.2493 197.582 24.8355C197.946 24.4216 198.388 24.1043 198.907 23.8836C199.425 23.6573 200.01 23.5442 200.661 23.5442C201.296 23.5442 201.859 23.649 202.35 23.8587C202.841 24.0684 203.252 24.3664 203.583 24.7527C203.92 25.139 204.174 25.6025 204.345 26.1433C204.516 26.6786 204.602 27.2746 204.602 27.9313V28.9246H197.483V27.3353H202.259V27.1532C202.259 26.8221 202.198 26.5268 202.077 26.2675C201.961 26.0026 201.784 25.7929 201.547 25.6384C201.31 25.4839 201.006 25.4066 200.637 25.4066C200.322 25.4066 200.052 25.4756 199.825 25.6136C199.599 25.7515 199.414 25.9447 199.271 26.193C199.133 26.4413 199.028 26.7338 198.956 27.0704C198.89 27.4015 198.857 27.7657 198.857 28.163V28.4941C198.857 28.8528 198.907 29.1839 199.006 29.4874C199.111 29.791 199.257 30.0531 199.445 30.2738C199.638 30.4945 199.87 30.6656 200.14 30.787C200.416 30.9084 200.728 30.9691 201.075 30.9691C201.506 30.9691 201.906 30.8863 202.276 30.7208C202.651 30.5497 202.974 30.2931 203.244 29.951L204.403 31.2092C204.215 31.4796 203.959 31.7389 203.633 31.9873C203.313 32.2356 202.927 32.4398 202.474 32.5998C202.022 32.7543 201.506 32.8316 200.926 32.8316ZM209.765 30.9691C210.058 30.9691 210.317 30.9139 210.543 30.8036C210.769 30.6877 210.946 30.5277 211.073 30.3235C211.205 30.1138 211.274 29.8682 211.28 29.5868H213.523C213.518 30.2159 213.349 30.776 213.018 31.2671C212.687 31.7527 212.243 32.1363 211.686 32.4177C211.128 32.6936 210.505 32.8316 209.815 32.8316C209.119 32.8316 208.512 32.7157 207.994 32.4839C207.481 32.2521 207.053 31.9321 206.711 31.5237C206.369 31.1098 206.112 30.6297 205.941 30.0834C205.77 29.5316 205.684 28.9411 205.684 28.312V28.072C205.684 27.4374 205.77 26.8469 205.941 26.3006C206.112 25.7488 206.369 25.2687 206.711 24.8603C207.053 24.4464 207.481 24.1236 207.994 23.8918C208.507 23.6601 209.108 23.5442 209.798 23.5442C210.532 23.5442 211.175 23.6849 211.727 23.9663C212.284 24.2478 212.72 24.6506 213.035 25.1749C213.355 25.6936 213.518 26.3089 213.523 27.0207H211.28C211.274 26.7227 211.211 26.4523 211.09 26.2095C210.974 25.9667 210.803 25.7736 210.576 25.6301C210.356 25.4811 210.082 25.4066 209.757 25.4066C209.409 25.4066 209.125 25.4811 208.904 25.6301C208.684 25.7736 208.512 25.9723 208.391 26.2261C208.27 26.4744 208.184 26.7586 208.134 27.0787C208.09 27.3932 208.068 27.7243 208.068 28.072V28.312C208.068 28.6597 208.09 28.9936 208.134 29.3136C208.179 29.6337 208.261 29.9179 208.383 30.1662C208.51 30.4145 208.684 30.6104 208.904 30.7539C209.125 30.8974 209.412 30.9691 209.765 30.9691ZM219.845 30.6463V26.6565C219.845 26.3696 219.799 26.124 219.705 25.9198C219.611 25.7101 219.465 25.5473 219.266 25.4315C219.073 25.3156 218.822 25.2576 218.513 25.2576C218.248 25.2576 218.019 25.3045 217.826 25.3983C217.633 25.4866 217.484 25.6163 217.379 25.7874C217.274 25.9529 217.222 26.1488 217.222 26.3751H214.838C214.838 25.9943 214.926 25.6329 215.102 25.2907C215.279 24.9486 215.536 24.6478 215.872 24.3885C216.209 24.1236 216.609 23.9167 217.073 23.7677C217.542 23.6187 218.066 23.5442 218.645 23.5442C219.341 23.5442 219.959 23.6601 220.499 23.8918C221.04 24.1236 221.465 24.4713 221.774 24.9348C222.089 25.3983 222.246 25.9778 222.246 26.6731V30.5056C222.246 30.9967 222.276 31.3996 222.337 31.7141C222.398 32.0231 222.486 32.2935 222.602 32.5253V32.666H220.193C220.077 32.4232 219.989 32.1197 219.928 31.7555C219.873 31.3858 219.845 31.016 219.845 30.6463ZM220.16 27.2111L220.177 28.5604H218.844C218.529 28.5604 218.256 28.5962 218.024 28.668C217.793 28.7397 217.602 28.8418 217.453 28.9742C217.304 29.1012 217.194 29.2502 217.122 29.4212C217.056 29.5923 217.023 29.7799 217.023 29.9841C217.023 30.1883 217.07 30.3731 217.164 30.5387C217.257 30.6987 217.393 30.8256 217.569 30.9195C217.746 31.0078 217.953 31.0519 218.19 31.0519C218.549 31.0519 218.86 30.9802 219.125 30.8367C219.39 30.6932 219.594 30.5166 219.738 30.3069C219.887 30.0972 219.964 29.8986 219.97 29.7109L220.599 30.7208C220.51 30.947 220.389 31.1816 220.235 31.4244C220.086 31.6672 219.895 31.8962 219.663 32.1114C219.432 32.3211 219.153 32.4949 218.827 32.6329C218.502 32.7653 218.115 32.8316 217.669 32.8316C217.1 32.8316 216.584 32.7184 216.121 32.4922C215.663 32.2604 215.298 31.9431 215.028 31.5403C214.763 31.1319 214.631 30.6684 214.631 30.1496C214.631 29.6806 214.719 29.264 214.896 28.8997C215.072 28.5355 215.331 28.2293 215.674 27.9809C216.021 27.7271 216.454 27.5367 216.973 27.4098C217.492 27.2773 218.093 27.2111 218.778 27.2111H220.16Z" fill="#001489"/>
<rect x="321" y="55.2578" width="47" height="714.543" fill="#CCD0E7" stroke="#F2F3F9" stroke-width="6"/>
<path d="M348.991 361.426L339 358.148V355.507L351.052 359.985V361.666L348.991 361.426ZM339 364.149L348.991 360.863L351.052 360.598V362.295L339 366.798V364.149ZM343.486 364H341.541V357.634H343.486V364ZM346.003 370.256H339V367.872H347.956V370.115L346.003 370.256ZM348.014 372.955L345.804 372.913C345.821 372.797 345.834 372.657 345.846 372.491C345.862 372.331 345.87 372.185 345.87 372.052C345.87 371.716 345.826 371.423 345.738 371.175C345.655 370.932 345.531 370.728 345.365 370.562C345.2 370.402 344.998 370.281 344.761 370.198C344.524 370.121 344.253 370.077 343.95 370.066L344.099 369.586C344.678 369.586 345.211 369.644 345.697 369.759C346.188 369.875 346.615 370.044 346.98 370.264C347.344 370.491 347.625 370.767 347.824 371.092C348.023 371.418 348.122 371.79 348.122 372.21C348.122 372.342 348.111 372.477 348.089 372.615C348.072 372.753 348.047 372.866 348.014 372.955ZM335.557 379.31H346.127L347.956 379.616V381.711H335.557V379.31ZM343.387 373.648H343.561C344.245 373.648 344.866 373.723 345.423 373.872C345.986 374.026 346.466 374.252 346.864 374.55C347.266 374.848 347.576 375.213 347.791 375.643C348.011 376.079 348.122 376.581 348.122 377.15C348.122 377.696 348.011 378.168 347.791 378.565C347.57 378.962 347.258 379.296 346.855 379.567C346.453 379.843 345.978 380.063 345.432 380.229C344.885 380.394 344.287 380.521 343.635 380.61H343.255C342.631 380.527 342.052 380.4 341.516 380.229C340.981 380.063 340.512 379.843 340.109 379.567C339.706 379.296 339.392 378.96 339.166 378.557C338.945 378.159 338.834 377.685 338.834 377.133C338.834 376.576 338.948 376.079 339.174 375.643C339.406 375.213 339.726 374.848 340.134 374.55C340.542 374.252 341.022 374.026 341.574 373.872C342.132 373.723 342.736 373.648 343.387 373.648ZM343.561 376.032H343.387C343.017 376.032 342.67 376.062 342.344 376.123C342.024 376.184 341.74 376.28 341.492 376.413C341.243 376.551 341.047 376.727 340.904 376.943C340.766 377.158 340.697 377.423 340.697 377.737C340.697 378.173 340.791 378.524 340.978 378.789C341.171 379.059 341.434 379.258 341.765 379.385C342.096 379.517 342.474 379.594 342.899 379.616H343.983C344.331 379.6 344.643 379.553 344.918 379.476C345.2 379.404 345.44 379.293 345.639 379.144C345.837 379.001 345.989 378.813 346.094 378.582C346.204 378.355 346.259 378.079 346.259 377.754C346.259 377.445 346.19 377.18 346.052 376.959C345.914 376.738 345.721 376.559 345.473 376.421C345.23 376.289 344.946 376.189 344.62 376.123C344.295 376.062 343.942 376.032 343.561 376.032ZM341.144 388.993H347.956V391.377H339V389.134L341.144 388.993ZM342.981 389.258L342.998 389.962C342.402 389.962 341.847 389.893 341.334 389.755C340.827 389.617 340.385 389.41 340.01 389.134C339.64 388.858 339.35 388.51 339.141 388.091C338.937 387.671 338.834 387.178 338.834 386.609C338.834 386.173 338.895 385.77 339.017 385.401C339.143 385.036 339.339 384.722 339.604 384.457C339.875 384.198 340.22 383.993 340.639 383.844C341.064 383.701 341.574 383.629 342.17 383.629H347.956V386.013H342.154C341.889 386.013 341.665 386.044 341.483 386.104C341.301 386.17 341.152 386.261 341.036 386.377C340.92 386.493 340.838 386.628 340.788 386.783C340.738 386.943 340.713 387.12 340.713 387.313C340.713 387.804 340.813 388.19 341.011 388.472C341.21 388.759 341.48 388.96 341.823 389.076C342.17 389.197 342.557 389.258 342.981 389.258ZM347.956 395.82H339V393.428H347.956V395.82ZM350.291 393.279C350.638 393.279 350.925 393.401 351.151 393.643C351.378 393.886 351.491 394.212 351.491 394.62C351.491 395.023 351.378 395.346 351.151 395.589C350.925 395.837 350.638 395.961 350.291 395.961C349.943 395.961 349.656 395.837 349.43 395.589C349.203 395.346 349.09 395.023 349.09 394.62C349.09 394.212 349.203 393.886 349.43 393.643C349.656 393.401 349.943 393.279 350.291 393.279ZM351.714 397.896V400.28H341.053L339 400.04V397.896H351.714ZM343.569 405.95H343.395C342.728 405.95 342.115 405.879 341.558 405.735C341 405.597 340.518 405.382 340.109 405.09C339.706 404.797 339.392 404.433 339.166 403.997C338.945 403.567 338.834 403.059 338.834 402.474C338.834 401.928 338.945 401.453 339.166 401.05C339.386 400.653 339.698 400.319 340.101 400.049C340.504 399.778 340.976 399.56 341.516 399.395C342.057 399.229 342.648 399.105 343.288 399.022H343.669C344.309 399.105 344.899 399.229 345.44 399.395C345.981 399.56 346.453 399.778 346.855 400.049C347.258 400.319 347.57 400.653 347.791 401.05C348.011 401.447 348.122 401.917 348.122 402.457C348.122 403.048 348.009 403.561 347.782 403.997C347.562 404.438 347.247 404.803 346.839 405.09C346.436 405.382 345.956 405.597 345.399 405.735C344.847 405.879 344.237 405.95 343.569 405.95ZM343.395 403.567H343.569C343.933 403.567 344.276 403.539 344.596 403.484C344.921 403.434 345.205 403.346 345.448 403.219C345.697 403.092 345.892 402.918 346.036 402.697C346.179 402.482 346.251 402.203 346.251 401.861C346.251 401.536 346.196 401.26 346.086 401.034C345.975 400.807 345.821 400.62 345.622 400.471C345.423 400.327 345.186 400.22 344.91 400.148C344.64 400.076 344.342 400.032 344.016 400.015H342.932C342.496 400.032 342.11 400.104 341.773 400.231C341.442 400.363 341.18 400.562 340.987 400.827C340.799 401.097 340.705 401.447 340.705 401.878C340.705 402.215 340.771 402.493 340.904 402.714C341.036 402.935 341.224 403.106 341.467 403.227C341.71 403.354 341.994 403.442 342.319 403.492C342.65 403.542 343.009 403.567 343.395 403.567ZM341.02 412.372H345.009C345.296 412.372 345.542 412.325 345.746 412.231C345.956 412.138 346.119 411.991 346.235 411.793C346.35 411.6 346.408 411.348 346.408 411.039C346.408 410.775 346.361 410.546 346.268 410.352C346.179 410.159 346.05 410.01 345.879 409.905C345.713 409.801 345.517 409.748 345.291 409.748V407.364C345.672 407.364 346.033 407.453 346.375 407.629C346.717 407.806 347.018 408.062 347.278 408.399C347.542 408.736 347.749 409.136 347.898 409.599C348.047 410.068 348.122 410.592 348.122 411.172C348.122 411.867 348.006 412.485 347.774 413.026C347.542 413.567 347.195 413.992 346.731 414.301C346.268 414.615 345.688 414.773 344.993 414.773H341.16C340.669 414.773 340.266 414.803 339.952 414.864C339.643 414.924 339.372 415.013 339.141 415.129H339V412.72C339.243 412.604 339.546 412.516 339.911 412.455C340.28 412.4 340.65 412.372 341.02 412.372ZM344.455 412.687L343.106 412.703V411.371C343.106 411.056 343.07 410.783 342.998 410.551C342.926 410.319 342.824 410.129 342.692 409.98C342.565 409.831 342.416 409.721 342.245 409.649C342.074 409.583 341.886 409.55 341.682 409.55C341.478 409.55 341.293 409.596 341.127 409.69C340.967 409.784 340.84 409.919 340.747 410.096C340.658 410.272 340.614 410.479 340.614 410.717C340.614 411.075 340.686 411.387 340.829 411.652C340.973 411.917 341.149 412.121 341.359 412.265C341.569 412.414 341.767 412.491 341.955 412.496L340.945 413.125C340.719 413.037 340.484 412.916 340.242 412.761C339.999 412.612 339.77 412.422 339.555 412.19C339.345 411.958 339.171 411.68 339.033 411.354C338.901 411.028 338.834 410.642 338.834 410.195C338.834 409.627 338.948 409.111 339.174 408.647C339.406 408.189 339.723 407.825 340.126 407.555C340.534 407.29 340.998 407.157 341.516 407.157C341.985 407.157 342.402 407.246 342.766 407.422C343.13 407.599 343.437 407.858 343.685 408.2C343.939 408.548 344.129 408.981 344.256 409.5C344.389 410.019 344.455 410.62 344.455 411.304V412.687ZM346.044 419.05H339V416.667H347.956V418.901L346.044 419.05ZM343.793 418.703V418.057C344.455 418.057 345.051 418.143 345.581 418.314C346.116 418.485 346.571 418.725 346.946 419.034C347.327 419.343 347.617 419.71 347.816 420.135C348.02 420.565 348.122 421.045 348.122 421.575C348.122 421.994 348.061 422.378 347.94 422.726C347.818 423.073 347.625 423.371 347.36 423.62C347.095 423.873 346.745 424.067 346.309 424.199C345.873 424.337 345.341 424.406 344.711 424.406H339V422.006H344.72C345.117 422.006 345.426 421.95 345.647 421.84C345.868 421.73 346.022 421.567 346.11 421.352C346.204 421.142 346.251 420.883 346.251 420.574C346.251 420.253 346.188 419.975 346.061 419.737C345.934 419.506 345.757 419.313 345.531 419.158C345.31 419.009 345.051 418.896 344.753 418.819C344.455 418.741 344.135 418.703 343.793 418.703ZM340.697 430.025C340.697 430.317 340.752 430.577 340.862 430.803C340.978 431.029 341.138 431.206 341.343 431.333C341.552 431.465 341.798 431.534 342.079 431.54V433.783C341.45 433.777 340.89 433.609 340.399 433.278C339.913 432.947 339.53 432.503 339.248 431.945C338.972 431.388 338.834 430.764 338.834 430.074C338.834 429.379 338.95 428.772 339.182 428.253C339.414 427.74 339.734 427.313 340.142 426.97C340.556 426.628 341.036 426.372 341.583 426.201C342.134 426.03 342.725 425.944 343.354 425.944H343.594C344.229 425.944 344.819 426.03 345.365 426.201C345.917 426.372 346.397 426.628 346.806 426.97C347.22 427.313 347.542 427.74 347.774 428.253C348.006 428.767 348.122 429.368 348.122 430.058C348.122 430.792 347.981 431.435 347.7 431.987C347.418 432.544 347.015 432.98 346.491 433.294C345.972 433.614 345.357 433.777 344.645 433.783V431.54C344.943 431.534 345.214 431.471 345.456 431.349C345.699 431.233 345.892 431.062 346.036 430.836C346.185 430.615 346.259 430.342 346.259 430.017C346.259 429.669 346.185 429.385 346.036 429.164C345.892 428.943 345.694 428.772 345.44 428.651C345.192 428.529 344.907 428.444 344.587 428.394C344.273 428.35 343.942 428.328 343.594 428.328H343.354C343.006 428.328 342.672 428.35 342.352 428.394C342.032 428.438 341.748 428.521 341.5 428.642C341.251 428.769 341.056 428.943 340.912 429.164C340.769 429.385 340.697 429.672 340.697 430.025ZM341.02 440.105H345.009C345.296 440.105 345.542 440.058 345.746 439.964C345.956 439.871 346.119 439.724 346.235 439.526C346.35 439.333 346.408 439.082 346.408 438.772C346.408 438.508 346.361 438.279 346.268 438.085C346.179 437.892 346.05 437.743 345.879 437.638C345.713 437.534 345.517 437.481 345.291 437.481V435.097C345.672 435.097 346.033 435.186 346.375 435.362C346.717 435.539 347.018 435.795 347.278 436.132C347.542 436.469 347.749 436.869 347.898 437.332C348.047 437.801 348.122 438.326 348.122 438.905C348.122 439.6 348.006 440.218 347.774 440.759C347.542 441.3 347.195 441.725 346.731 442.034C346.268 442.348 345.688 442.506 344.993 442.506H341.16C340.669 442.506 340.266 442.536 339.952 442.597C339.643 442.657 339.372 442.746 339.141 442.862H339V440.453C339.243 440.337 339.546 440.249 339.911 440.188C340.28 440.133 340.65 440.105 341.02 440.105ZM344.455 440.42L343.106 440.436V439.104C343.106 438.789 343.07 438.516 342.998 438.284C342.926 438.052 342.824 437.862 342.692 437.713C342.565 437.564 342.416 437.454 342.245 437.382C342.074 437.316 341.886 437.283 341.682 437.283C341.478 437.283 341.293 437.329 341.127 437.423C340.967 437.517 340.84 437.652 340.747 437.829C340.658 438.005 340.614 438.212 340.614 438.45C340.614 438.808 340.686 439.12 340.829 439.385C340.973 439.65 341.149 439.854 341.359 439.998C341.569 440.147 341.767 440.224 341.955 440.229L340.945 440.858C340.719 440.77 340.484 440.649 340.242 440.494C339.999 440.345 339.77 440.155 339.555 439.923C339.345 439.691 339.171 439.413 339.033 439.087C338.901 438.761 338.834 438.375 338.834 437.928C338.834 437.36 338.948 436.844 339.174 436.38C339.406 435.922 339.723 435.558 340.126 435.288C340.534 435.023 340.998 434.89 341.516 434.89C341.985 434.89 342.402 434.979 342.766 435.155C343.13 435.332 343.437 435.591 343.685 435.933C343.939 436.281 344.129 436.714 344.256 437.233C344.389 437.752 344.455 438.353 344.455 439.037V440.42ZM340.953 449.739H351.714V452.139H339V449.979L340.953 449.739ZM343.371 444.077H343.544C344.229 444.077 344.849 444.154 345.407 444.309C345.97 444.463 346.453 444.689 346.855 444.987C347.258 445.285 347.57 445.652 347.791 446.088C348.011 446.524 348.122 447.021 348.122 447.578C348.122 448.102 348.011 448.56 347.791 448.952C347.57 449.35 347.255 449.686 346.847 449.962C346.444 450.243 345.967 450.47 345.415 450.641C344.869 450.812 344.27 450.936 343.619 451.013H343.238C342.615 450.936 342.035 450.812 341.5 450.641C340.965 450.47 340.495 450.243 340.093 449.962C339.695 449.686 339.386 449.35 339.166 448.952C338.945 448.555 338.834 448.091 338.834 447.562C338.834 447.004 338.948 446.508 339.174 446.072C339.4 445.641 339.717 445.277 340.126 444.979C340.534 444.687 341.014 444.463 341.566 444.309C342.118 444.154 342.719 444.077 343.371 444.077ZM343.544 446.461H343.371C343.001 446.461 342.656 446.488 342.336 446.543C342.016 446.604 341.732 446.701 341.483 446.833C341.24 446.971 341.05 447.148 340.912 447.363C340.78 447.584 340.713 447.851 340.713 448.166C340.713 448.574 340.805 448.911 340.987 449.176C341.174 449.441 341.431 449.642 341.756 449.78C342.082 449.923 342.457 450.006 342.882 450.028H343.967C344.314 450.012 344.626 449.962 344.902 449.879C345.183 449.802 345.423 449.686 345.622 449.532C345.821 449.383 345.975 449.195 346.086 448.969C346.196 448.748 346.251 448.486 346.251 448.182C346.251 447.873 346.179 447.608 346.036 447.388C345.898 447.167 345.708 446.988 345.465 446.85C345.222 446.717 344.935 446.618 344.604 446.552C344.278 446.491 343.925 446.461 343.544 446.461ZM341.02 458.942H345.009C345.296 458.942 345.542 458.895 345.746 458.801C345.956 458.707 346.119 458.561 346.235 458.362C346.35 458.169 346.408 457.918 346.408 457.609C346.408 457.344 346.361 457.115 346.268 456.922C346.179 456.729 346.05 456.58 345.879 456.475C345.713 456.37 345.517 456.318 345.291 456.318V453.934C345.672 453.934 346.033 454.022 346.375 454.198C346.717 454.375 347.018 454.632 347.278 454.968C347.542 455.305 347.749 455.705 347.898 456.169C348.047 456.638 348.122 457.162 348.122 457.741C348.122 458.437 348.006 459.055 347.774 459.595C347.542 460.136 347.195 460.561 346.731 460.87C346.268 461.185 345.688 461.342 344.993 461.342H341.16C340.669 461.342 340.266 461.372 339.952 461.433C339.643 461.494 339.372 461.582 339.141 461.698H339V459.289C339.243 459.173 339.546 459.085 339.911 459.024C340.28 458.969 340.65 458.942 341.02 458.942ZM344.455 459.256L343.106 459.273V457.94C343.106 457.625 343.07 457.352 342.998 457.12C342.926 456.889 342.824 456.698 342.692 456.549C342.565 456.4 342.416 456.29 342.245 456.218C342.074 456.152 341.886 456.119 341.682 456.119C341.478 456.119 341.293 456.166 341.127 456.26C340.967 456.353 340.84 456.489 340.747 456.665C340.658 456.842 340.614 457.049 340.614 457.286C340.614 457.645 340.686 457.956 340.829 458.221C340.973 458.486 341.149 458.69 341.359 458.834C341.569 458.983 341.767 459.06 341.955 459.066L340.945 459.695C340.719 459.606 340.484 459.485 340.242 459.331C339.999 459.182 339.77 458.991 339.555 458.759C339.345 458.528 339.171 458.249 339.033 457.923C338.901 457.598 338.834 457.212 338.834 456.765C338.834 456.196 338.948 455.68 339.174 455.217C339.406 454.759 339.723 454.394 340.126 454.124C340.534 453.859 340.998 453.727 341.516 453.727C341.985 453.727 342.402 453.815 342.766 453.992C343.13 454.168 343.437 454.428 343.685 454.77C343.939 455.117 344.129 455.55 344.256 456.069C344.389 456.588 344.455 457.189 344.455 457.874V459.256Z" fill="#001489"/>
<rect x="3" y="55.2578" width="47" height="714.543" fill="#CCD0E7" stroke="#F2F3F9" stroke-width="6"/>
<path d="M27.704 437.424V440.495H25.767V437.424C25.767 436.949 25.6898 436.563 25.5352 436.265C25.3752 435.967 25.1545 435.749 24.873 435.611C24.5916 435.473 24.2743 435.404 23.9211 435.404C23.5624 435.404 23.2286 435.473 22.9195 435.611C22.6105 435.749 22.3622 435.967 22.1746 436.265C21.9869 436.563 21.8931 436.949 21.8931 437.424V439.634H32V442.117H19.9479V437.424C19.9479 436.48 20.119 435.672 20.4611 434.999C20.7977 434.32 21.264 433.801 21.86 433.442C22.456 433.084 23.1375 432.904 23.9046 432.904C24.6827 432.904 25.3559 433.084 25.9243 433.442C26.4927 433.801 26.9314 434.32 27.2404 434.999C27.5494 435.672 27.704 436.48 27.704 437.424ZM23.0437 428.718H32V431.11H23.0437V428.718ZM20.7094 431.259C20.3618 431.259 20.0748 431.137 19.8486 430.895C19.6223 430.652 19.5092 430.326 19.5092 429.918C19.5092 429.515 19.6223 429.192 19.8486 428.949C20.0748 428.701 20.3618 428.577 20.7094 428.577C21.0571 428.577 21.3441 428.701 21.5703 428.949C21.7966 429.192 21.9097 429.515 21.9097 429.918C21.9097 430.326 21.7966 430.652 21.5703 430.895C21.3441 431.137 21.0571 431.259 20.7094 431.259ZM29.525 421.799C29.3539 421.799 29.1994 421.849 29.0615 421.948C28.9235 422.048 28.7966 422.232 28.6807 422.503C28.5593 422.768 28.4489 423.151 28.3496 423.653C28.2503 424.106 28.1261 424.528 27.9771 424.92C27.8226 425.306 27.6377 425.643 27.4225 425.93C27.2073 426.211 26.9535 426.432 26.661 426.592C26.363 426.752 26.0236 426.832 25.6429 426.832C25.2676 426.832 24.9144 426.752 24.5833 426.592C24.2522 426.426 23.9598 426.192 23.7059 425.888C23.4466 425.579 23.2451 425.204 23.1017 424.763C22.9527 424.316 22.8782 423.813 22.8782 423.256C22.8782 422.478 23.0023 421.81 23.2507 421.253C23.499 420.69 23.8411 420.26 24.2771 419.962C24.7075 419.658 25.1986 419.506 25.7505 419.506V421.89C25.5187 421.89 25.3118 421.94 25.1297 422.039C24.942 422.133 24.7958 422.282 24.6909 422.486C24.5806 422.685 24.5254 422.944 24.5254 423.264C24.5254 423.529 24.5723 423.758 24.6661 423.951C24.7544 424.145 24.8758 424.294 25.0303 424.398C25.1793 424.498 25.3449 424.547 25.527 424.547C25.6649 424.547 25.7891 424.52 25.8995 424.465C26.0043 424.404 26.1009 424.307 26.1892 424.175C26.2775 424.042 26.3602 423.871 26.4375 423.662C26.5092 423.446 26.5755 423.182 26.6362 422.867C26.7686 422.221 26.9424 421.645 27.1576 421.137C27.3673 420.629 27.6543 420.227 28.0185 419.929C28.3772 419.631 28.849 419.482 29.434 419.482C29.8313 419.482 30.1955 419.57 30.5266 419.746C30.8577 419.923 31.1474 420.177 31.3957 420.508C31.6385 420.839 31.8289 421.236 31.9669 421.7C32.0993 422.158 32.1656 422.674 32.1656 423.248C32.1656 424.081 32.0166 424.787 31.7186 425.367C31.4206 425.941 31.0426 426.377 30.5845 426.675C30.121 426.967 29.6464 427.113 29.1608 427.113V424.854C29.4864 424.843 29.7485 424.76 29.9472 424.605C30.1458 424.445 30.2893 424.244 30.3776 424.001C30.4659 423.753 30.51 423.485 30.51 423.198C30.51 422.889 30.4687 422.633 30.3859 422.428C30.2976 422.224 30.1817 422.07 30.0382 421.965C29.8892 421.854 29.7182 421.799 29.525 421.799ZM30.3031 414.128C30.3031 413.835 30.2479 413.576 30.1376 413.35C30.0217 413.123 29.8616 412.947 29.6575 412.82C29.4478 412.687 29.2022 412.618 28.9208 412.613V410.37C29.5499 410.375 30.11 410.543 30.6011 410.875C31.0867 411.206 31.4702 411.65 31.7517 412.207C32.0276 412.765 32.1656 413.388 32.1656 414.078C32.1656 414.773 32.0497 415.38 31.8179 415.899C31.5861 416.412 31.2661 416.84 30.8577 417.182C30.4438 417.524 29.9637 417.781 29.4174 417.952C28.8656 418.123 28.2751 418.208 27.646 418.208H27.406C26.7714 418.208 26.1809 418.123 25.6346 417.952C25.0827 417.781 24.6026 417.524 24.1943 417.182C23.7804 416.84 23.4576 416.412 23.2258 415.899C22.994 415.386 22.8782 414.784 22.8782 414.095C22.8782 413.361 23.0189 412.718 23.3003 412.166C23.5818 411.609 23.9846 411.173 24.5088 410.858C25.0276 410.538 25.6429 410.375 26.3547 410.37V412.613C26.0567 412.618 25.7863 412.682 25.5435 412.803C25.3007 412.919 25.1076 413.09 24.9641 413.316C24.8151 413.537 24.7406 413.81 24.7406 414.136C24.7406 414.484 24.8151 414.768 24.9641 414.989C25.1076 415.209 25.3062 415.38 25.5601 415.502C25.8084 415.623 26.0926 415.709 26.4127 415.758C26.7272 415.802 27.0583 415.825 27.406 415.825H27.646C27.9937 415.825 28.3275 415.802 28.6476 415.758C28.9677 415.714 29.2519 415.631 29.5002 415.51C29.7485 415.383 29.9444 415.209 30.0879 414.989C30.2314 414.768 30.3031 414.481 30.3031 414.128ZM23.0437 406.365H32V408.757H23.0437V406.365ZM20.7094 408.906C20.3618 408.906 20.0748 408.785 19.8486 408.542C19.6223 408.299 19.5092 407.974 19.5092 407.565C19.5092 407.162 19.6223 406.84 19.8486 406.597C20.0748 406.348 20.3618 406.224 20.7094 406.224C21.0571 406.224 21.3441 406.348 21.5703 406.597C21.7966 406.84 21.9097 407.162 21.9097 407.565C21.9097 407.974 21.7966 408.299 21.5703 408.542C21.3441 408.785 21.0571 408.906 20.7094 408.906ZM24.9558 401.955H32V404.339H23.0437V402.104L24.9558 401.955ZM27.2073 402.302V402.948C26.5451 402.948 25.9491 402.862 25.4194 402.691C24.8841 402.52 24.4288 402.28 24.0536 401.971C23.6728 401.662 23.3831 401.295 23.1844 400.87C22.9803 400.44 22.8782 399.96 22.8782 399.43C22.8782 399.011 22.9389 398.627 23.0603 398.279C23.1817 397.932 23.3748 397.634 23.6397 397.386C23.9046 397.132 24.255 396.939 24.6909 396.806C25.1269 396.668 25.6594 396.599 26.2885 396.599H32V399H26.2802C25.8829 399 25.5739 399.055 25.3531 399.165C25.1324 399.276 24.9779 399.438 24.8896 399.654C24.7958 399.863 24.7489 400.123 24.7489 400.432C24.7489 400.752 24.8123 401.03 24.9393 401.268C25.0662 401.499 25.2428 401.693 25.469 401.847C25.6898 401.996 25.9491 402.109 26.2471 402.186C26.5451 402.264 26.8652 402.302 27.2073 402.302ZM29.9803 389.846H25.9905C25.7036 389.846 25.458 389.893 25.2538 389.987C25.0441 390.081 24.8813 390.227 24.7654 390.426C24.6496 390.619 24.5916 390.87 24.5916 391.179C24.5916 391.444 24.6385 391.673 24.7323 391.866C24.8206 392.059 24.9503 392.208 25.1214 392.313C25.2869 392.418 25.4828 392.47 25.7091 392.47V394.854C25.3283 394.854 24.9669 394.766 24.6247 394.589C24.2826 394.413 23.9818 394.156 23.7225 393.82C23.4576 393.483 23.2507 393.083 23.1017 392.619C22.9527 392.15 22.8782 391.626 22.8782 391.047C22.8782 390.351 22.994 389.733 23.2258 389.192C23.4576 388.652 23.8052 388.227 24.2688 387.918C24.7323 387.603 25.3118 387.446 26.0071 387.446H29.8396C30.3307 387.446 30.7335 387.416 31.0481 387.355C31.3571 387.294 31.6275 387.206 31.8593 387.09H32V389.499C31.7572 389.615 31.4537 389.703 31.0895 389.764C30.7197 389.819 30.35 389.846 29.9803 389.846ZM26.5451 389.532L27.8943 389.515V390.848C27.8943 391.162 27.9302 391.436 28.002 391.667C28.0737 391.899 28.1758 392.09 28.3082 392.239C28.4351 392.388 28.5841 392.498 28.7552 392.57C28.9263 392.636 29.1139 392.669 29.3181 392.669C29.5223 392.669 29.7071 392.622 29.8727 392.528C30.0327 392.434 30.1596 392.299 30.2534 392.123C30.3417 391.946 30.3859 391.739 30.3859 391.502C30.3859 391.143 30.3141 390.831 30.1707 390.566C30.0272 390.302 29.8506 390.097 29.6409 389.954C29.4312 389.805 29.2325 389.728 29.0449 389.722L30.0548 389.093C30.281 389.181 30.5156 389.303 30.7584 389.457C31.0012 389.606 31.2302 389.797 31.4454 390.028C31.6551 390.26 31.8289 390.539 31.9669 390.864C32.0993 391.19 32.1656 391.576 32.1656 392.023C32.1656 392.592 32.0524 393.108 31.8262 393.571C31.5944 394.029 31.2771 394.393 30.8743 394.664C30.4659 394.929 30.0024 395.061 29.4836 395.061C29.0146 395.061 28.5979 394.973 28.2337 394.796C27.8695 394.62 27.5632 394.36 27.3149 394.018C27.0611 393.671 26.8707 393.237 26.7438 392.719C26.6113 392.2 26.5451 391.598 26.5451 390.914V389.532Z" fill="#001489"/>
<path d="M13 770.867C7.47715 770.867 3 766.39 3 760.867L3 720.743H89C94.5228 720.743 99 725.22 99 730.743V760.867C99 766.39 94.5229 770.867 89 770.867H13Z" fill="#CCD0E7" stroke="#F2F3F9" stroke-width="6"/>
<path d="M26.1079 748.827V750.541H20.4316V748.827H26.1079ZM21.1494 739.877V750.541H18.9521V739.877H21.1494ZM25.3682 744.22V745.89H20.4316V744.22H25.3682ZM26.1006 739.877V741.598H20.4316V739.877H26.1006ZM29.4292 744.308V750.541H27.3198V742.616H29.2974L29.4292 744.308ZM29.1216 746.3H28.5503C28.5503 745.714 28.626 745.187 28.7773 744.718C28.9287 744.245 29.1411 743.842 29.4145 743.51C29.688 743.173 30.0127 742.917 30.3887 742.741C30.7695 742.56 31.1943 742.47 31.6631 742.47C32.0342 742.47 32.3735 742.523 32.6811 742.631C32.9888 742.738 33.2524 742.909 33.4722 743.144C33.6968 743.378 33.8677 743.688 33.9849 744.074C34.1069 744.459 34.168 744.931 34.168 745.487V750.541H32.0439V745.48C32.0439 745.128 31.9951 744.855 31.8975 744.66C31.7998 744.464 31.6558 744.328 31.4653 744.25C31.2798 744.167 31.0503 744.125 30.7769 744.125C30.4936 744.125 30.2471 744.181 30.0371 744.293C29.832 744.406 29.6611 744.562 29.5244 744.762C29.3926 744.958 29.2925 745.187 29.2241 745.451C29.1558 745.714 29.1216 745.998 29.1216 746.3ZM39.7598 742.616V744.11H35.1455V742.616H39.7598ZM36.2881 740.661H38.3975V748.153C38.3975 748.383 38.4267 748.559 38.4853 748.681C38.5488 748.803 38.6416 748.888 38.7637 748.937C38.8857 748.981 39.0395 749.003 39.2251 749.003C39.3569 749.003 39.4741 748.998 39.5767 748.988C39.6841 748.974 39.7744 748.959 39.8476 748.944L39.855 750.497C39.6743 750.556 39.479 750.602 39.269 750.636C39.0591 750.67 38.8271 750.688 38.5732 750.688C38.1094 750.688 37.7041 750.612 37.3574 750.46C37.0156 750.304 36.7519 750.055 36.5664 749.713C36.3808 749.372 36.2881 748.922 36.2881 748.366V740.661ZM43.1763 744.345V750.541H41.0669V742.616H43.0517L43.1763 744.345ZM45.564 742.565L45.5273 744.521C45.4248 744.506 45.3003 744.494 45.1538 744.484C45.0122 744.469 44.8828 744.462 44.7656 744.462C44.4678 744.462 44.209 744.501 43.9892 744.579C43.7744 744.652 43.5937 744.762 43.4473 744.909C43.3057 745.055 43.1982 745.233 43.125 745.443C43.0566 745.653 43.0176 745.893 43.0078 746.161L42.583 746.029C42.583 745.517 42.6343 745.045 42.7368 744.616C42.8393 744.181 42.9883 743.803 43.1836 743.48C43.3838 743.158 43.6279 742.909 43.916 742.733C44.2041 742.558 44.5337 742.47 44.9048 742.47C45.022 742.47 45.1416 742.479 45.2637 742.499C45.3857 742.514 45.4858 742.536 45.564 742.565ZM50.6943 748.754V745.224C50.6943 744.97 50.6528 744.752 50.5698 744.572C50.4868 744.386 50.3574 744.242 50.1816 744.14C50.0107 744.037 49.7886 743.986 49.5151 743.986C49.2807 743.986 49.0781 744.027 48.9072 744.11C48.7363 744.188 48.6045 744.303 48.5117 744.455C48.4189 744.601 48.3725 744.774 48.3725 744.975H46.2632C46.2632 744.638 46.3413 744.318 46.4975 744.015C46.6538 743.712 46.8808 743.446 47.1787 743.217C47.4765 742.982 47.8305 742.799 48.2407 742.667C48.6557 742.536 49.1196 742.47 49.6323 742.47C50.2475 742.47 50.7944 742.572 51.2729 742.777C51.7514 742.982 52.1274 743.29 52.4009 743.7C52.6792 744.11 52.8183 744.623 52.8183 745.238V748.629C52.8183 749.064 52.8452 749.42 52.8989 749.699C52.9526 749.972 53.0307 750.211 53.1333 750.417V750.541H51.0019C50.8994 750.326 50.8213 750.058 50.7676 749.735C50.7187 749.408 50.6943 749.081 50.6943 748.754ZM50.9726 745.714L50.9873 746.908H49.8081C49.5298 746.908 49.2881 746.94 49.083 747.003C48.8779 747.067 48.7095 747.157 48.5776 747.274C48.4458 747.387 48.3481 747.519 48.2846 747.67C48.2261 747.821 48.1968 747.987 48.1968 748.168C48.1968 748.349 48.2383 748.512 48.3213 748.659C48.4043 748.8 48.5239 748.913 48.6802 748.996C48.8364 749.074 49.0195 749.113 49.2295 749.113C49.5469 749.113 49.8227 749.049 50.0571 748.922C50.2915 748.795 50.4721 748.639 50.5991 748.454C50.7309 748.268 50.7993 748.092 50.8042 747.926L51.3608 748.82C51.2827 749.02 51.1753 749.228 51.0386 749.442C50.9067 749.657 50.7383 749.86 50.5332 750.05C50.3281 750.236 50.0815 750.39 49.7934 750.512C49.5054 750.629 49.1636 750.688 48.768 750.688C48.2651 750.688 47.8086 750.587 47.3984 750.387C46.9931 750.182 46.6709 749.901 46.4316 749.545C46.1972 749.184 46.0801 748.773 46.0801 748.314C46.0801 747.899 46.1582 747.531 46.3144 747.208C46.4707 746.886 46.7002 746.615 47.0029 746.396C47.3105 746.171 47.6938 746.002 48.1528 745.89C48.6118 745.773 49.144 745.714 49.7495 745.714H50.9726ZM59.2304 748.812V739.291H61.3545V750.541H59.4428L59.2304 748.812ZM54.2207 746.674V746.52C54.2207 745.915 54.289 745.365 54.4258 744.872C54.5625 744.374 54.7627 743.947 55.0263 743.59C55.29 743.234 55.6147 742.958 56.0005 742.763C56.3862 742.567 56.8257 742.47 57.3188 742.47C57.7827 742.47 58.188 742.567 58.5346 742.763C58.8862 742.958 59.1841 743.236 59.4282 743.598C59.6772 743.954 59.8774 744.376 60.0288 744.865C60.1802 745.348 60.29 745.878 60.3584 746.454V746.791C60.29 747.343 60.1802 747.855 60.0288 748.329C59.8774 748.803 59.6772 749.218 59.4282 749.574C59.1841 749.926 58.8862 750.199 58.5346 750.395C58.1831 750.59 57.7729 750.688 57.3042 750.688C56.811 750.688 56.3716 750.587 55.9858 750.387C55.605 750.187 55.2827 749.906 55.019 749.545C54.7602 749.184 54.5625 748.759 54.4258 748.271C54.289 747.782 54.2207 747.25 54.2207 746.674ZM56.3301 746.52V746.674C56.3301 747.001 56.3545 747.306 56.4033 747.589C56.457 747.873 56.5425 748.124 56.6596 748.344C56.7817 748.559 56.938 748.727 57.1284 748.849C57.3237 748.966 57.5605 749.025 57.8388 749.025C58.2002 749.025 58.498 748.944 58.7324 748.783C58.9668 748.617 59.145 748.39 59.2671 748.102C59.394 747.814 59.4673 747.482 59.4868 747.106V746.146C59.4721 745.839 59.4282 745.563 59.355 745.319C59.2866 745.07 59.1841 744.857 59.0473 744.682C58.9155 744.506 58.7495 744.369 58.5493 744.271C58.354 744.174 58.122 744.125 57.8535 744.125C57.5801 744.125 57.3457 744.188 57.1504 744.315C56.9551 744.438 56.7964 744.606 56.6743 744.821C56.5571 745.036 56.4692 745.29 56.4106 745.583C56.3569 745.871 56.3301 746.183 56.3301 746.52ZM67.3857 748.754V745.224C67.3857 744.97 67.3442 744.752 67.2612 744.572C67.1782 744.386 67.0488 744.242 66.873 744.14C66.7021 744.037 66.48 743.986 66.2065 743.986C65.9721 743.986 65.7695 744.027 65.5986 744.11C65.4277 744.188 65.2959 744.303 65.2031 744.455C65.1103 744.601 65.0639 744.774 65.0639 744.975H62.9546C62.9546 744.638 63.0327 744.318 63.1889 744.015C63.3452 743.712 63.5722 743.446 63.8701 743.217C64.1679 742.982 64.5219 742.799 64.9321 742.667C65.3471 742.536 65.811 742.47 66.3237 742.47C66.9389 742.47 67.4858 742.572 67.9643 742.777C68.4428 742.982 68.8188 743.29 69.0923 743.7C69.3706 744.11 69.5097 744.623 69.5097 745.238V748.629C69.5097 749.064 69.5366 749.42 69.5903 749.699C69.644 749.972 69.7221 750.211 69.8247 750.417V750.541H67.6933C67.5908 750.326 67.5127 750.058 67.459 749.735C67.4101 749.408 67.3857 749.081 67.3857 748.754ZM67.664 745.714L67.6787 746.908H66.4995C66.2212 746.908 65.9795 746.94 65.7744 747.003C65.5693 747.067 65.4009 747.157 65.269 747.274C65.1372 747.387 65.0395 747.519 64.976 747.67C64.9175 747.821 64.8882 747.987 64.8882 748.168C64.8882 748.349 64.9297 748.512 65.0127 748.659C65.0957 748.8 65.2153 748.913 65.3716 748.996C65.5278 749.074 65.7109 749.113 65.9209 749.113C66.2383 749.113 66.5141 749.049 66.7485 748.922C66.9829 748.795 67.1635 748.639 67.2905 748.454C67.4223 748.268 67.4907 748.092 67.4956 747.926L68.0522 748.82C67.9741 749.02 67.8667 749.228 67.73 749.442C67.5981 749.657 67.4297 749.86 67.2246 750.05C67.0195 750.236 66.7729 750.39 66.4848 750.512C66.1968 750.629 65.855 750.688 65.4594 750.688C64.9565 750.688 64.5 750.587 64.0898 750.387C63.6845 750.182 63.3623 749.901 63.123 749.545C62.8886 749.184 62.7715 748.773 62.7715 748.314C62.7715 747.899 62.8496 747.531 63.0058 747.208C63.1621 746.886 63.3916 746.615 63.6943 746.396C64.0019 746.171 64.3852 746.002 64.8442 745.89C65.3032 745.773 65.8354 745.714 66.4409 745.714H67.664ZM80.1367 739.855V750.541H78.0273V742.287L75.4931 743.092V741.43L79.9096 739.855H80.1367Z" fill="#001489"/>
<path d="M282 770.867C276.477 770.867 272 766.39 272 760.867V730.743C272 725.22 276.477 720.743 282 720.743H368V760.867C368 766.39 363.523 770.867 358 770.867H282Z" fill="#CCD0E7" stroke="#F2F3F9" stroke-width="6"/>
<path d="M295.108 747.761V749.475H289.432V747.761H295.108ZM290.149 738.811V749.475H287.952V738.811H290.149ZM294.368 743.154V744.824H289.432V743.154H294.368ZM295.101 738.811V740.532H289.432V738.811H295.101ZM298.429 743.242V749.475H296.32V741.55H298.297L298.429 743.242ZM298.122 745.234H297.55C297.55 744.648 297.626 744.121 297.777 743.652C297.929 743.178 298.141 742.775 298.415 742.443C298.688 742.106 299.013 741.85 299.389 741.674C299.77 741.494 300.194 741.403 300.663 741.403C301.034 741.403 301.374 741.457 301.681 741.564C301.989 741.672 302.252 741.843 302.472 742.077C302.697 742.312 302.868 742.622 302.985 743.007C303.107 743.393 303.168 743.864 303.168 744.421V749.475H301.044V744.414C301.044 744.062 300.995 743.789 300.897 743.593C300.8 743.398 300.656 743.261 300.465 743.183C300.28 743.1 300.05 743.059 299.777 743.059C299.494 743.059 299.247 743.115 299.037 743.227C298.832 743.339 298.661 743.496 298.524 743.696C298.393 743.891 298.292 744.121 298.224 744.384C298.156 744.648 298.122 744.931 298.122 745.234ZM308.76 741.55V743.044H304.145V741.55H308.76ZM305.288 739.594H307.397V747.087C307.397 747.316 307.427 747.492 307.485 747.614C307.549 747.736 307.642 747.822 307.764 747.871C307.886 747.915 308.04 747.937 308.225 747.937C308.357 747.937 308.474 747.932 308.577 747.922C308.684 747.907 308.774 747.893 308.848 747.878L308.855 749.431C308.674 749.489 308.479 749.536 308.269 749.57C308.059 749.604 307.827 749.621 307.573 749.621C307.109 749.621 306.704 749.545 306.357 749.394C306.016 749.238 305.752 748.989 305.566 748.647C305.381 748.305 305.288 747.856 305.288 747.299V739.594ZM312.176 743.278V749.475H310.067V741.55H312.052L312.176 743.278ZM314.564 741.499L314.527 743.454C314.425 743.439 314.3 743.427 314.154 743.417C314.012 743.403 313.883 743.396 313.766 743.396C313.468 743.396 313.209 743.435 312.989 743.513C312.774 743.586 312.594 743.696 312.447 743.842C312.306 743.989 312.198 744.167 312.125 744.377C312.057 744.587 312.018 744.826 312.008 745.095L311.583 744.963C311.583 744.45 311.634 743.979 311.737 743.549C311.839 743.115 311.988 742.736 312.184 742.414C312.384 742.092 312.628 741.843 312.916 741.667C313.204 741.491 313.534 741.403 313.905 741.403C314.022 741.403 314.142 741.413 314.264 741.433C314.386 741.447 314.486 741.469 314.564 741.499ZM319.694 747.688V744.157C319.694 743.903 319.653 743.686 319.57 743.505C319.487 743.32 319.357 743.176 319.182 743.073C319.011 742.971 318.789 742.919 318.515 742.919C318.281 742.919 318.078 742.961 317.907 743.044C317.736 743.122 317.604 743.237 317.512 743.388C317.419 743.535 317.373 743.708 317.373 743.908H315.263C315.263 743.571 315.341 743.251 315.498 742.949C315.654 742.646 315.881 742.38 316.179 742.15C316.477 741.916 316.831 741.733 317.241 741.601C317.656 741.469 318.12 741.403 318.632 741.403C319.248 741.403 319.794 741.506 320.273 741.711C320.751 741.916 321.127 742.224 321.401 742.634C321.679 743.044 321.818 743.557 321.818 744.172V747.563C321.818 747.998 321.845 748.354 321.899 748.632C321.953 748.906 322.031 749.145 322.133 749.35V749.475H320.002C319.899 749.26 319.821 748.991 319.768 748.669C319.719 748.342 319.694 748.015 319.694 747.688ZM319.973 744.648L319.987 745.842H318.808C318.53 745.842 318.288 745.874 318.083 745.937C317.878 746 317.709 746.091 317.578 746.208C317.446 746.32 317.348 746.452 317.285 746.604C317.226 746.755 317.197 746.921 317.197 747.102C317.197 747.282 317.238 747.446 317.321 747.592C317.404 747.734 317.524 747.846 317.68 747.929C317.836 748.007 318.02 748.046 318.229 748.046C318.547 748.046 318.823 747.983 319.057 747.856C319.291 747.729 319.472 747.573 319.599 747.387C319.731 747.202 319.799 747.026 319.804 746.86L320.361 747.753C320.283 747.954 320.175 748.161 320.039 748.376C319.907 748.591 319.738 748.793 319.533 748.984C319.328 749.169 319.082 749.323 318.793 749.445C318.505 749.562 318.164 749.621 317.768 749.621C317.265 749.621 316.809 749.521 316.398 749.321C315.993 749.116 315.671 748.835 315.432 748.479C315.197 748.117 315.08 747.707 315.08 747.248C315.08 746.833 315.158 746.464 315.314 746.142C315.471 745.82 315.7 745.549 316.003 745.329C316.311 745.104 316.694 744.936 317.153 744.824C317.612 744.707 318.144 744.648 318.749 744.648H319.973ZM328.23 747.746V738.225H330.354V749.475H328.443L328.23 747.746ZM323.221 745.607V745.454C323.221 744.848 323.289 744.299 323.426 743.806C323.562 743.308 323.763 742.88 324.026 742.524C324.29 742.167 324.615 741.892 325 741.696C325.386 741.501 325.826 741.403 326.319 741.403C326.783 741.403 327.188 741.501 327.535 741.696C327.886 741.892 328.184 742.17 328.428 742.531C328.677 742.888 328.877 743.31 329.029 743.798C329.18 744.282 329.29 744.812 329.358 745.388V745.725C329.29 746.276 329.18 746.789 329.029 747.263C328.877 747.736 328.677 748.151 328.428 748.508C328.184 748.859 327.886 749.133 327.535 749.328C327.183 749.523 326.773 749.621 326.304 749.621C325.811 749.621 325.372 749.521 324.986 749.321C324.605 749.121 324.283 748.84 324.019 748.479C323.76 748.117 323.562 747.692 323.426 747.204C323.289 746.716 323.221 746.184 323.221 745.607ZM325.33 745.454V745.607C325.33 745.935 325.354 746.24 325.403 746.523C325.457 746.806 325.542 747.058 325.66 747.277C325.782 747.492 325.938 747.661 326.128 747.783C326.324 747.9 326.561 747.958 326.839 747.958C327.2 747.958 327.498 747.878 327.732 747.717C327.967 747.551 328.145 747.324 328.267 747.036C328.394 746.748 328.467 746.416 328.487 746.04V745.08C328.472 744.772 328.428 744.497 328.355 744.252C328.287 744.003 328.184 743.791 328.047 743.615C327.916 743.439 327.749 743.303 327.549 743.205C327.354 743.107 327.122 743.059 326.853 743.059C326.58 743.059 326.346 743.122 326.15 743.249C325.955 743.371 325.796 743.54 325.674 743.754C325.557 743.969 325.469 744.223 325.411 744.516C325.357 744.804 325.33 745.117 325.33 745.454ZM336.386 747.688V744.157C336.386 743.903 336.344 743.686 336.261 743.505C336.178 743.32 336.049 743.176 335.873 743.073C335.702 742.971 335.48 742.919 335.207 742.919C334.972 742.919 334.77 742.961 334.599 743.044C334.428 743.122 334.296 743.237 334.203 743.388C334.11 743.535 334.064 743.708 334.064 743.908H331.955C331.955 743.571 332.033 743.251 332.189 742.949C332.345 742.646 332.572 742.38 332.87 742.15C333.168 741.916 333.522 741.733 333.932 741.601C334.347 741.469 334.811 741.403 335.324 741.403C335.939 741.403 336.486 741.506 336.964 741.711C337.443 741.916 337.819 742.224 338.092 742.634C338.371 743.044 338.51 743.557 338.51 744.172V747.563C338.51 747.998 338.537 748.354 338.59 748.632C338.644 748.906 338.722 749.145 338.825 749.35V749.475H336.693C336.591 749.26 336.513 748.991 336.459 748.669C336.41 748.342 336.386 748.015 336.386 747.688ZM336.664 744.648L336.679 745.842H335.499C335.221 745.842 334.979 745.874 334.774 745.937C334.569 746 334.401 746.091 334.269 746.208C334.137 746.32 334.04 746.452 333.976 746.604C333.917 746.755 333.888 746.921 333.888 747.102C333.888 747.282 333.93 747.446 334.013 747.592C334.096 747.734 334.215 747.846 334.372 747.929C334.528 748.007 334.711 748.046 334.921 748.046C335.238 748.046 335.514 747.983 335.749 747.856C335.983 747.729 336.164 747.573 336.291 747.387C336.422 747.202 336.491 747.026 336.496 746.86L337.052 747.753C336.974 747.954 336.867 748.161 336.73 748.376C336.598 748.591 336.43 748.793 336.225 748.984C336.02 749.169 335.773 749.323 335.485 749.445C335.197 749.562 334.855 749.621 334.459 749.621C333.957 749.621 333.5 749.521 333.09 749.321C332.685 749.116 332.362 748.835 332.123 748.479C331.889 748.117 331.771 747.707 331.771 747.248C331.771 746.833 331.85 746.464 332.006 746.142C332.162 745.82 332.392 745.549 332.694 745.329C333.002 745.104 333.385 744.936 333.844 744.824C334.303 744.707 334.835 744.648 335.441 744.648H336.664ZM351.29 747.827V749.475H343.995V748.068L347.445 744.37C347.791 743.984 348.065 743.645 348.265 743.352C348.465 743.054 348.609 742.788 348.697 742.553C348.79 742.314 348.836 742.087 348.836 741.872C348.836 741.55 348.783 741.274 348.675 741.044C348.568 740.81 348.409 740.629 348.199 740.502C347.994 740.375 347.74 740.312 347.437 740.312C347.115 740.312 346.837 740.39 346.603 740.546C346.373 740.703 346.197 740.92 346.075 741.198C345.958 741.477 345.899 741.792 345.899 742.143H343.783C343.783 741.508 343.934 740.927 344.237 740.4C344.54 739.868 344.967 739.445 345.519 739.133C346.07 738.815 346.725 738.657 347.481 738.657C348.228 738.657 348.858 738.779 349.371 739.023C349.889 739.262 350.279 739.609 350.543 740.063C350.811 740.512 350.946 741.049 350.946 741.674C350.946 742.026 350.89 742.37 350.777 742.707C350.665 743.039 350.504 743.371 350.294 743.703C350.089 744.03 349.84 744.362 349.547 744.699C349.254 745.036 348.929 745.385 348.573 745.747L346.72 747.827H351.29Z" fill="#001489"/>
</svg>
